# Blender v2.76 (sub 0) OBJ File: 'BigRock1.blend'
# www.blender.org
mtllib BigRock1.mtl
o Icosphere
v 0.295470 0.516325 0.825065
v -0.723607 0.447220 0.525725
v -0.723607 0.447220 -0.525725
v 0.319367 1.361025 -0.553570
v 0.756663 0.960472 -0.038689
v 0.000000 1.620167 0.242827
v 0.951058 0.000000 0.309013
v 0.951058 0.000000 -0.309013
v 0.000000 0.000000 1.000000
v 0.587786 0.000000 0.809017
v -0.951058 0.000000 0.309013
v -0.587786 0.000000 0.809017
v -0.587786 0.000000 -0.809017
v -0.951058 0.000000 -0.309013
v 0.587786 0.000000 -0.809017
v 0.000000 0.000000 -1.000000
v 0.688189 0.525736 0.499997
v -0.369750 0.912810 0.665713
v -0.856430 0.532549 -0.001460
v -0.205047 1.342602 -0.598288
v 0.489503 1.480196 -0.179417
v 0.355017 1.335337 0.634542
v 0.373980 1.514638 0.119115
v -0.557470 1.489286 0.233126
v -0.438951 1.601734 -0.102874
v -0.106061 1.534692 -0.281174
v 0.720282 0.871319 -0.244086
v 0.453576 0.680512 -0.681293
v 0.156898 0.668644 -0.780678
v 0.521851 0.334322 -0.746269
v 0.405919 1.421650 -0.363231
vn 0.630200 0.132200 0.765100
vn -0.663900 0.298400 0.685700
vn -0.902500 0.325700 -0.281700
vn 0.014500 0.853200 -0.521400
vn 0.827300 0.496400 0.262900
vn 0.205000 0.958500 -0.197900
vn 0.103500 0.991800 -0.074400
vn 0.145800 0.921600 -0.359800
vn 0.100700 0.978500 -0.180000
vn -0.091100 0.864100 -0.495000
vn -0.740800 0.384400 -0.550800
vn -0.226000 0.945000 0.236500
vn -0.917300 0.338200 -0.210400
vn -0.935400 0.225600 0.272200
vn -0.178900 0.711500 0.679500
vn -0.268700 0.520600 0.810400
vn -0.093600 0.232000 0.968200
vn 0.353600 0.879300 0.318900
vn 0.922200 0.353400 0.156900
vn 0.792300 0.421600 0.441000
vn 0.904900 0.307900 -0.293900
vn 0.738800 0.283900 -0.611200
vn 0.847200 0.254600 -0.466300
vn 0.070800 0.295800 -0.952600
vn -0.300700 0.230900 -0.925300
vn -0.602300 0.288500 -0.744300
vn -0.903500 0.323100 -0.281500
vn -0.984600 0.174900 0.000000
vn -0.903700 0.323900 0.280100
vn -0.636100 0.265700 0.724400
vn -0.301600 0.217800 0.928200
vn -0.026400 0.334300 0.942100
vn 0.600200 0.317000 0.734300
vn 0.794700 0.187600 0.577300
vn 0.879900 0.308800 0.361100
vn 0.300500 0.232900 -0.924900
vn -0.802600 0.125600 -0.583100
vn -0.802600 0.125600 0.583100
vn 0.305800 0.143900 0.941200
vn 0.980100 0.198400 0.000000
usemtl Material.001
s off
f 1//1 17//1 22//1
f 2//2 18//2 24//2
f 3//3 19//3 25//3
f 4//4 20//4 26//4
f 5//5 21//5 23//5
f 23//6 26//6 6//6
f 23//7 21//7 26//7
f 21//8 31//8 4//8 26//8
f 26//9 25//9 6//9
f 26//10 20//10 25//10
f 20//11 3//11 25//11
f 25//12 24//12 6//12
f 25//13 19//13 24//13
f 19//14 2//14 24//14
f 24//15 22//15 6//15
f 24//16 18//16 22//16
f 18//17 1//17 22//17
f 22//18 23//18 6//18
f 22//19 17//19 23//19
f 17//20 5//20 23//20
f 8//21 27//21 21//21 5//21
f 8//22 15//22 21//22 27//22
f 30//23 28//23 4//23 31//23
f 16//24 20//24 4//24 29//24
f 16//25 13//25 20//25
f 13//26 3//26 20//26
f 14//27 19//27 3//27
f 14//28 11//28 19//28
f 11//29 2//29 19//29
f 12//30 18//30 2//30
f 12//31 9//31 18//31
f 9//32 1//32 18//32
f 10//33 17//33 1//33
f 10//34 7//34 17//34
f 7//35 5//35 17//35
f 30//36 29//36 4//36 28//36
f 13//37 14//37 3//37
f 11//38 12//38 2//38
f 9//39 10//39 1//39
f 7//40 8//40 5//40
f 15//36 16//36 29//36 30//36
f 15//23 30//23 31//23 21//23
