# Blender v2.76 (sub 0) OBJ File: 'RockGroup1.blend'
# www.blender.org
mtllib RockGroup1.mtl
o Icosphere.003
v 0.063780 0.602820 2.077751
v -0.033996 0.434935 3.083195
v -1.231239 0.320289 2.643957
v -1.408263 0.290789 1.756044
v -0.196169 0.453846 1.336769
v -0.767981 0.857549 2.111089
v 0.271970 0.000000 1.420117
v -0.322071 0.000000 1.249617
v 0.673765 0.000000 2.524895
v 0.652351 0.000000 1.907232
v -0.252784 0.000000 3.248416
v 0.328035 0.000000 3.037182
v -1.227206 0.000000 2.590801
v -0.846825 0.000000 3.077916
v -0.902891 0.000000 1.460850
v -1.248620 0.000000 1.973137
v 0.024707 0.472812 1.559746
v -0.049529 0.669255 2.581432
v -0.550898 0.526931 3.059813
v -1.334067 0.500172 2.317451
v -0.884777 0.389177 1.455181
v -0.413951 0.768858 2.041642
v -0.498155 0.719135 1.734136
v -0.462143 0.788746 2.523835
v -0.701785 0.850654 2.572583
v -1.235876 0.831849 1.995944
vn 0.334600 0.907700 -0.253100
vn 0.200600 0.890000 0.409400
vn -0.538700 0.615200 0.575600
vn -0.954600 0.297400 0.015300
vn -0.179900 0.749500 -0.637100
vn 0.028500 0.944800 -0.326500
vn -0.129600 0.724400 -0.677100
vn -0.503300 0.479200 -0.719100
vn -0.060600 0.997900 0.023600
vn -0.565400 0.654300 0.502300
vn -0.564700 0.634700 0.527500
vn 0.246100 0.969000 -0.020800
vn 0.308600 0.833500 0.458300
vn 0.136300 0.881100 0.453000
vn 0.240000 0.970600 -0.016000
vn 0.279600 0.960000 -0.011600
vn 0.331200 0.942200 -0.049800
vn 0.198800 0.957400 -0.209300
vn 0.346500 0.906400 -0.241500
vn 0.293800 0.882900 -0.366200
vn -0.186100 0.234800 -0.954100
vn -0.341800 0.002200 -0.939800
vn -0.499800 0.010600 -0.866100
vn -0.915300 -0.322400 0.241200
vn -0.981000 -0.191000 0.034000
vn -0.960800 -0.057100 0.271100
vn -0.563500 0.342300 0.751800
vn -0.271100 0.184700 0.944700
vn 0.019300 0.346600 0.937800
vn 0.755900 0.601900 0.257700
vn 0.632000 0.647000 0.426500
vn 0.680400 0.730600 0.056700
vn 0.663400 0.712400 -0.228800
vn 0.677700 0.510700 -0.529200
vn 0.594700 0.497500 -0.631500
vn -0.624500 -0.657500 -0.421500
vn -0.783300 -0.111400 0.611600
vn 0.336100 0.182000 0.924100
vn 0.711800 0.702000 -0.024700
vn 0.274300 0.107400 -0.955600
usemtl Material.001
s off
f 1//1 17//1 22//1
f 2//2 18//2 24//2
f 3//3 19//3 25//3
f 4//4 20//4 26//4
f 5//5 21//5 23//5
f 23//6 26//6 6//6
f 23//7 21//7 26//7
f 21//8 4//8 26//8
f 26//9 25//9 6//9
f 26//10 20//10 25//10
f 20//11 3//11 25//11
f 25//12 24//12 6//12
f 25//13 19//13 24//13
f 19//14 2//14 24//14
f 24//15 22//15 6//15
f 24//16 18//16 22//16
f 18//17 1//17 22//17
f 22//18 23//18 6//18
f 22//19 17//19 23//19
f 17//20 5//20 23//20
f 8//21 21//21 5//21
f 8//22 15//22 21//22
f 15//23 4//23 21//23
f 16//24 20//24 4//24
f 16//25 13//25 20//25
f 13//26 3//26 20//26
f 14//27 19//27 3//27
f 14//28 11//28 19//28
f 11//29 2//29 19//29
f 12//30 18//30 2//30
f 12//31 9//31 18//31
f 9//32 1//32 18//32
f 10//33 17//33 1//33
f 10//34 7//34 17//34
f 7//35 5//35 17//35
f 15//36 16//36 4//36
f 13//37 14//37 3//37
f 11//38 12//38 2//38
f 9//39 10//39 1//39
f 7//40 8//40 5//40
o Icosphere.001
v 1.989239 0.602820 0.864480
v 2.967823 0.434935 1.115180
v 2.350302 0.320289 2.230970
v 1.445748 0.290789 2.269835
v 1.217174 0.453846 1.007807
v 1.894720 0.857549 1.691525
v 1.371277 0.000000 0.557970
v 1.111756 0.000000 1.118866
v 2.524579 0.000000 0.330223
v 1.910930 0.000000 0.256730
v 3.097564 0.000000 1.356704
v 2.977833 0.000000 0.750374
v 2.298391 0.000000 2.218839
v 2.838044 0.000000 1.917600
v 1.231487 0.000000 1.725195
v 1.684742 0.000000 2.145346
v 1.471365 0.472812 0.823709
v 2.469607 0.669255 1.053637
v 2.865504 0.526931 1.622394
v 2.011894 0.500172 2.282548
v 1.228661 0.389177 1.706427
v 1.880346 0.768858 1.331034
v 1.563568 0.719135 1.367120
v 2.349459 0.788746 1.452551
v 2.360907 0.850654 1.696832
v 1.709232 0.831849 2.136248
vn -0.198800 0.907700 -0.369400
vn 0.435300 0.890000 -0.135500
vn 0.486200 0.615200 0.620500
vn -0.131200 0.297400 0.945700
vn -0.657200 0.749500 0.080200
vn -0.318300 0.944800 -0.078200
vn -0.689000 0.724400 0.024300
vn -0.787700 0.479200 0.387200
vn 0.014000 0.997900 0.063500
vn 0.409700 0.654300 0.635700
vn 0.434800 0.634700 0.638900
vn 0.017100 0.969000 -0.246400
vn 0.500100 0.833500 -0.234700
vn 0.468500 0.881100 -0.065300
vn 0.020900 0.970600 -0.239600
vn 0.031300 0.960000 -0.278100
vn 0.001600 0.942200 -0.335000
vn -0.176300 0.957400 -0.228500
vn -0.185500 0.906400 -0.379400
vn -0.316800 0.882900 -0.346500
vn -0.971300 0.234800 0.037700
vn -0.981100 0.002200 0.193700
vn -0.932500 0.010600 0.361100
vn 0.098100 -0.322400 0.941500
vn -0.116700 -0.191000 0.974600
vn 0.120700 -0.057100 0.991000
vn 0.656600 0.342300 0.672100
vn 0.891900 0.184700 0.412700
vn 0.929700 0.346600 0.124700
vn 0.370500 0.601900 -0.707400
vn 0.518300 0.647000 -0.559200
vn 0.160300 0.730600 -0.663700
vn -0.124500 0.712400 -0.690600
vn -0.419100 0.510700 -0.750700
vn -0.532900 0.497500 -0.684500
vn -0.512200 -0.657500 0.552600
vn 0.484400 -0.111400 0.867700
vn 0.964700 0.182000 -0.190500
vn 0.084700 0.702000 -0.707200
vn -0.902300 0.107400 -0.417500
usemtl Material.001
s off
f 27//41 43//41 48//41
f 28//42 44//42 50//42
f 29//43 45//43 51//43
f 30//44 46//44 52//44
f 31//45 47//45 49//45
f 49//46 52//46 32//46
f 49//47 47//47 52//47
f 47//48 30//48 52//48
f 52//49 51//49 32//49
f 52//50 46//50 51//50
f 46//51 29//51 51//51
f 51//52 50//52 32//52
f 51//53 45//53 50//53
f 45//54 28//54 50//54
f 50//55 48//55 32//55
f 50//56 44//56 48//56
f 44//57 27//57 48//57
f 48//58 49//58 32//58
f 48//59 43//59 49//59
f 43//60 31//60 49//60
f 34//61 47//61 31//61
f 34//62 41//62 47//62
f 41//63 30//63 47//63
f 42//64 46//64 30//64
f 42//65 39//65 46//65
f 39//66 29//66 46//66
f 40//67 45//67 29//67
f 40//68 37//68 45//68
f 37//69 28//69 45//69
f 38//70 44//70 28//70
f 38//71 35//71 44//71
f 35//72 27//72 44//72
f 36//73 43//73 27//73
f 36//74 33//74 43//74
f 33//75 31//75 43//75
f 41//76 42//76 30//76
f 39//77 40//77 29//77
f 37//78 38//78 28//78
f 35//79 36//79 27//79
f 33//80 34//80 31//80
o Icosphere
v 0.261510 0.602820 0.290329
v -0.731890 0.434935 0.473729
v -0.639992 0.320289 -0.798228
v 0.164626 0.290789 -1.213340
v 0.902021 0.453846 -0.163953
v 0.000000 0.857549 -0.499955
v 0.951058 0.000000 0.309013
v 0.951058 0.000000 -0.309013
v 0.000000 0.000000 1.000000
v 0.587786 0.000000 0.809017
v -0.951058 0.000000 0.309013
v -0.587786 0.000000 0.809017
v -0.587786 0.000000 -0.809017
v -0.951058 0.000000 -0.309013
v 0.587786 0.000000 -0.809017
v 0.000000 0.000000 -1.000000
v 0.748633 0.472812 0.109866
v -0.253884 0.669255 0.320373
v -0.852017 0.526931 -0.029564
v -0.354525 0.500172 -0.987142
v 0.598232 0.389177 -0.793170
v 0.164422 0.768858 -0.178823
v 0.436764 0.719135 -0.344594
v -0.312354 0.788746 -0.092119
v -0.425323 0.850654 -0.309011
v -0.018406 0.831849 -0.981459
vn 0.335600 0.907700 0.251800
vn -0.338200 0.890000 0.305800
vn -0.701900 0.615200 -0.359000
vn -0.278000 0.297400 -0.913400
vn 0.562700 0.749500 -0.348700
vn 0.321700 0.944800 -0.062700
vn 0.615100 0.724400 -0.311400
vn 0.552300 0.479200 -0.682200
vn -0.039400 0.997900 -0.051800
vn -0.638800 0.654300 -0.404800
vn -0.662800 0.634700 -0.397200
vn 0.087900 0.969000 0.230800
vn -0.355400 0.833500 0.423000
vn -0.397800 0.881100 0.256000
vn 0.081600 0.970600 0.226300
vn 0.088300 0.960000 0.265600
vn 0.139200 0.942200 0.304700
vn 0.256000 0.957400 0.133400
vn 0.327700 0.906400 0.266400
vn 0.433000 0.882900 0.181400
vn 0.865700 0.234800 -0.442100
vn 0.809000 0.002200 -0.587800
vn 0.694600 0.010600 -0.719300
vn -0.484400 -0.322400 -0.813300
vn -0.303300 -0.191000 -0.933500
vn -0.525700 -0.057100 -0.848800
vn -0.878100 0.342300 -0.334200
vn -0.982800 0.184700 0.000000
vn -0.896100 0.346600 0.277200
vn -0.039200 0.601900 0.797600
vn -0.235600 0.647000 0.725200
vn 0.133200 0.730600 0.669700
vn 0.403000 0.712400 0.574500
vn 0.695600 0.510700 0.505400
vn 0.771000 0.497500 0.397500
vn 0.232800 -0.657500 -0.716600
vn -0.804000 -0.111400 -0.584100
vn -0.795500 0.182000 0.578000
vn 0.220100 0.702000 0.677400
vn 0.994200 0.107400 0.000000
usemtl Material.001
s off
f 53//81 69//81 74//81
f 54//82 70//82 76//82
f 55//83 71//83 77//83
f 56//84 72//84 78//84
f 57//85 73//85 75//85
f 75//86 78//86 58//86
f 75//87 73//87 78//87
f 73//88 56//88 78//88
f 78//89 77//89 58//89
f 78//90 72//90 77//90
f 72//91 55//91 77//91
f 77//92 76//92 58//92
f 77//93 71//93 76//93
f 71//94 54//94 76//94
f 76//95 74//95 58//95
f 76//96 70//96 74//96
f 70//97 53//97 74//97
f 74//98 75//98 58//98
f 74//99 69//99 75//99
f 69//100 57//100 75//100
f 60//101 73//101 57//101
f 60//102 67//102 73//102
f 67//103 56//103 73//103
f 68//104 72//104 56//104
f 68//105 65//105 72//105
f 65//106 55//106 72//106
f 66//107 71//107 55//107
f 66//108 63//108 71//108
f 63//109 54//109 71//109
f 64//110 70//110 54//110
f 64//111 61//111 70//111
f 61//112 53//112 70//112
f 62//113 69//113 53//113
f 62//114 59//114 69//114
f 59//115 57//115 69//115
f 67//116 68//116 56//116
f 65//117 66//117 55//117
f 63//118 64//118 54//118
f 61//119 62//119 53//119
f 59//120 60//120 57//120
