# Blender v2.76 (sub 0) OBJ File: 'RockGroup2.blend'
# www.blender.org
mtllib RockGroup2.mtl
o Icosphere.004
v 0.909872 0.223454 0.606743
v 0.645032 0.215135 0.289355
v 0.860351 0.231640 -0.113459
v 1.342952 0.172201 0.004075
v 1.335336 0.229725 0.430313
v 1.001479 0.341475 0.245119
v 1.481079 0.042546 0.446441
v 1.474690 0.036862 0.251325
v 0.712220 0.064416 0.704470
v 1.080349 0.021362 0.745137
v 0.600388 0.042546 -0.098784
v 0.511688 0.021362 0.393086
v 1.027905 0.028588 -0.305893
v 0.777887 0.036862 -0.180057
v 1.475856 0.028588 -0.028571
v 1.301188 0.045493 -0.246878
v 1.154577 0.236341 0.521503
v 0.814047 0.278745 0.463502
v 0.731536 0.243763 0.058722
v 1.097160 0.194316 -0.049911
v 1.381892 0.216591 0.209488
v 0.939139 0.317686 0.467405
v 1.197151 0.310914 0.374442
v 0.790517 0.302188 0.217443
v 0.941400 0.300851 0.088745
v 1.128909 0.307542 0.187261
vn 0.158300 0.802200 0.575700
vn -0.462000 0.877600 0.127800
vn -0.223900 0.946100 -0.234100
vn 0.176400 0.878900 -0.443200
vn 0.490300 0.870000 0.051600
vn 0.215200 0.971800 -0.096000
vn 0.345900 0.927300 -0.142800
vn 0.346800 0.901000 -0.260500
vn 0.119800 0.948700 -0.292500
vn 0.202000 0.873000 -0.443800
vn 0.246600 0.882300 -0.400900
vn -0.155300 0.969000 -0.192100
vn -0.217600 0.939400 -0.264900
vn -0.547500 0.830500 -0.102300
vn -0.189400 0.980500 0.051800
vn -0.298500 0.947000 0.118800
vn -0.271700 0.822700 0.499300
vn 0.071300 0.989500 0.125900
vn 0.198300 0.849800 0.488300
vn 0.281000 0.820700 0.497500
vn 0.863000 0.481300 0.153300
vn 0.889400 0.457000 -0.009800
vn 0.673400 0.685900 -0.275900
vn 0.180500 0.865600 -0.467100
vn 0.068600 0.828900 -0.555200
vn 0.275500 0.771200 -0.573800
vn -0.686800 0.478000 -0.547500
vn -0.279500 0.698100 -0.659200
vn -0.742400 0.639700 -0.199000
vn -0.647900 0.654500 0.389700
vn -0.655500 0.680200 0.328100
vn -0.354200 0.768100 0.533500
vn 0.213200 0.668000 0.712900
vn 0.481800 0.546300 0.685100
vn 0.424400 0.400400 0.812100
vn 0.609000 0.662700 -0.435900
vn -0.391600 0.441800 -0.807100
vn -0.848000 0.513500 -0.130800
vn -0.028200 0.548500 0.835700
vn 0.790100 0.611400 -0.043700
usemtl Material.001
s off
f 1//1 17//1 22//1
f 2//2 18//2 24//2
f 3//3 19//3 25//3
f 4//4 20//4 26//4
f 5//5 21//5 23//5
f 23//6 26//6 6//6
f 23//7 21//7 26//7
f 21//8 4//8 26//8
f 26//9 25//9 6//9
f 26//10 20//10 25//10
f 20//11 3//11 25//11
f 25//12 24//12 6//12
f 25//13 19//13 24//13
f 19//14 2//14 24//14
f 24//15 22//15 6//15
f 24//16 18//16 22//16
f 18//17 1//17 22//17
f 22//18 23//18 6//18
f 22//19 17//19 23//19
f 17//20 5//20 23//20
f 8//21 21//21 5//21
f 8//22 15//22 21//22
f 15//23 4//23 21//23
f 16//24 20//24 4//24
f 16//25 13//25 20//25
f 13//26 3//26 20//26
f 14//27 19//27 3//27
f 14//28 11//28 19//28
f 11//29 2//29 19//29
f 12//30 18//30 2//30
f 12//31 9//31 18//31
f 9//32 1//32 18//32
f 10//33 17//33 1//33
f 10//34 7//34 17//34
f 7//35 5//35 17//35
f 15//36 16//36 4//36
f 13//37 14//37 3//37
f 11//38 12//38 2//38
f 9//39 10//39 1//39
f 7//40 8//40 5//40
o Icosphere.003
v 0.545139 0.153284 -1.039433
v 0.828590 0.138063 -0.939595
v 0.832455 0.134908 -0.668769
v 0.564697 0.101700 -0.559014
v 0.418684 0.138062 -0.778565
v 0.650220 0.192325 -0.829029
v 0.347416 0.025127 -0.725443
v 0.416937 0.021770 -0.633466
v 0.630565 0.038043 -1.111754
v 0.439079 0.012616 -1.006028
v 0.958041 0.025127 -0.762227
v 0.833359 0.012616 -1.029779
v 0.822267 0.016883 -0.516716
v 0.900064 0.021770 -0.662570
v 0.511681 0.016883 -0.498007
v 0.670300 0.026868 -0.452139
v 0.486923 0.158712 -0.921478
v 0.674605 0.187567 -1.008453
v 0.859429 0.155002 -0.796531
v 0.720587 0.141215 -0.555061
v 0.498814 0.115751 -0.655657
v 0.566481 0.206954 -0.929842
v 0.511206 0.188281 -0.778830
v 0.766858 0.191891 -0.854692
v 0.709190 0.191231 -0.771219
v 0.628305 0.181749 -0.728109
vn -0.518100 0.803700 -0.292700
vn 0.400500 0.877200 -0.264900
vn 0.261800 0.943400 0.203600
vn -0.239100 0.909300 0.340500
vn -0.430800 0.795900 0.425300
vn 0.009400 0.994300 0.106200
vn -0.163700 0.857200 0.488300
vn -0.280300 0.904100 0.322500
vn -0.069000 0.993600 0.089100
vn 0.005800 0.974300 0.225100
vn 0.261100 0.943400 0.204500
vn 0.006400 0.999900 0.012400
vn 0.260000 0.947300 0.187100
vn 0.469900 0.859100 -0.203000
vn 0.029900 0.992400 0.119200
vn 0.109500 0.989600 -0.093500
vn -0.139300 0.899800 -0.413500
vn 0.017800 0.991500 0.129100
vn -0.523200 0.847800 -0.086700
vn -0.474800 0.874300 -0.100400
vn -0.590900 0.632900 0.500200
vn -0.615900 0.643800 0.454000
vn -0.550800 0.686100 0.475200
vn -0.195400 0.702200 0.684700
vn 0.360700 0.531400 0.766500
vn 0.571100 0.629500 0.526900
vn 0.824200 0.506400 0.253600
vn 0.670500 0.617700 0.410900
vn 0.802800 0.546800 -0.237800
vn 0.482400 0.523300 -0.702500
vn 0.382900 0.446100 -0.808900
vn 0.050600 0.557500 -0.828600
vn -0.773900 0.487500 -0.404400
vn -0.844000 0.447500 -0.295700
vn -0.856900 0.373700 -0.355200
vn -0.246200 0.662700 0.707300
vn 0.766600 0.481400 0.425000
vn 0.850200 0.328200 -0.411600
vn -0.493500 0.169500 -0.853100
vn -0.616000 0.618300 0.488100
usemtl Material.001
s off
f 27//41 43//41 48//41
f 28//42 44//42 50//42
f 29//43 45//43 51//43
f 30//44 46//44 52//44
f 31//45 47//45 49//45
f 49//46 52//46 32//46
f 49//47 47//47 52//47
f 47//48 30//48 52//48
f 52//49 51//49 32//49
f 52//50 46//50 51//50
f 46//51 29//51 51//51
f 51//52 50//52 32//52
f 51//53 45//53 50//53
f 45//54 28//54 50//54
f 50//55 48//55 32//55
f 50//56 44//56 48//56
f 44//57 27//57 48//57
f 48//58 49//58 32//58
f 48//59 43//59 49//59
f 43//60 31//60 49//60
f 34//61 47//61 31//61
f 34//62 41//62 47//62
f 41//63 30//63 47//63
f 42//64 46//64 30//64
f 42//65 39//65 46//65
f 39//66 29//66 46//66
f 40//67 45//67 29//67
f 40//68 37//68 45//68
f 37//69 28//69 45//69
f 38//70 44//70 28//70
f 38//71 35//71 44//71
f 35//72 27//72 44//72
f 36//73 43//73 27//73
f 36//74 33//74 43//74
f 33//75 31//75 43//75
f 41//76 42//76 30//76
f 39//77 40//77 29//77
f 37//78 38//78 28//78
f 35//79 36//79 27//79
f 33//80 34//80 31//80
o Icosphere.002
v -0.620448 0.163508 0.269464
v -0.921445 0.163899 0.362269
v -1.084668 0.177922 0.152394
v -0.940560 0.120442 -0.155091
v -0.665375 0.159698 -0.041185
v -0.836658 0.290288 0.117276
v -0.566426 0.082923 -0.125010
v -0.729319 0.022656 -0.207809
v -0.648513 0.057207 0.369880
v -0.539113 0.035466 0.167720
v -1.134489 0.054728 0.309917
v -0.863617 0.041356 0.433307
v -1.188479 0.021845 0.013031
v -1.189485 0.024861 0.186754
v -0.923057 0.034157 -0.219697
v -1.098912 0.044777 -0.158759
v -0.634000 0.188101 0.095102
v -0.741353 0.213123 0.350318
v -1.029417 0.243963 0.215511
v -1.072663 0.150959 -0.031551
v -0.796112 0.150611 -0.130999
v -0.715598 0.283047 0.175141
v -0.733430 0.253276 0.036096
v -0.877907 0.269411 0.244346
v -0.989024 0.251240 0.110865
v -0.871144 0.252780 0.013868
vn 0.770400 0.636800 0.029900
vn -0.167700 0.764600 0.622300
vn -0.649300 0.733900 -0.199600
vn -0.292500 0.807500 -0.512300
vn 0.348900 0.734500 -0.582100
vn 0.054200 0.932800 -0.356400
vn 0.084900 0.834400 -0.544500
vn -0.067100 0.798700 -0.598000
vn -0.229100 0.937100 -0.263500
vn -0.340000 0.851200 -0.399700
vn -0.642100 0.751400 -0.152000
vn -0.250600 0.965000 0.077200
vn -0.166400 0.986000 0.004300
vn -0.242000 0.765800 0.595800
vn -0.016000 0.987500 0.157000
vn 0.084700 0.921100 0.380100
vn 0.556200 0.740500 0.377300
vn 0.165800 0.959700 -0.226800
vn 0.627600 0.740900 -0.239100
vn 0.640100 0.709300 -0.295200
vn 0.415700 0.617700 -0.667600
vn 0.083500 0.544600 -0.834500
vn 0.008000 0.600400 -0.799700
vn -0.347300 0.753900 -0.557600
vn -0.757600 0.569400 -0.319000
vn -0.760800 0.633200 -0.142500
vn -0.809500 0.577800 0.104100
vn -0.800900 0.555800 0.222800
vn -0.464100 0.588100 0.662300
vn -0.071500 0.474700 0.877200
vn 0.254300 0.268000 0.929300
vn 0.616700 0.448400 0.647000
vn 0.847300 0.531000 0.009000
vn 0.847800 0.530300 0.006900
vn 0.430600 0.858600 -0.278100
vn -0.243800 0.549100 -0.799400
vn -0.826500 0.562700 -0.014600
vn -0.378900 0.323700 0.866900
vn 0.871200 0.195500 0.450400
vn 0.045600 0.762900 -0.644900
usemtl Material.001
s off
f 53//81 69//81 74//81
f 54//82 70//82 76//82
f 55//83 71//83 77//83
f 56//84 72//84 78//84
f 57//85 73//85 75//85
f 75//86 78//86 58//86
f 75//87 73//87 78//87
f 73//88 56//88 78//88
f 78//89 77//89 58//89
f 78//90 72//90 77//90
f 72//91 55//91 77//91
f 77//92 76//92 58//92
f 77//93 71//93 76//93
f 71//94 54//94 76//94
f 76//95 74//95 58//95
f 76//96 70//96 74//96
f 70//97 53//97 74//97
f 74//98 75//98 58//98
f 74//99 69//99 75//99
f 69//100 57//100 75//100
f 60//101 73//101 57//101
f 60//102 67//102 73//102
f 67//103 56//103 73//103
f 68//104 72//104 56//104
f 68//105 65//105 72//105
f 65//106 55//106 72//106
f 66//107 71//107 55//107
f 66//108 63//108 71//108
f 63//109 54//109 71//109
f 64//110 70//110 54//110
f 64//111 61//111 70//111
f 61//112 53//112 70//112
f 62//113 69//113 53//113
f 62//114 59//114 69//114
f 59//115 57//115 69//115
f 67//116 68//116 56//116
f 65//117 66//117 55//117
f 63//118 64//118 54//118
f 61//119 62//119 53//119
f 59//120 60//120 57//120
o Icosphere.001
v -0.645713 0.158375 -1.102124
v -0.342255 0.153095 -0.996513
v -0.355023 0.171144 -0.681642
v -0.677038 0.122248 -0.563474
v -0.819079 0.161715 -0.886588
v -0.556514 0.227513 -0.865963
v -0.981878 0.033722 -0.802443
v -0.904551 0.029217 -0.668421
v -0.544445 0.045075 -1.238199
v -0.813263 0.016931 -1.160904
v -0.162582 0.033722 -0.750138
v -0.284245 0.016931 -1.127131
v -0.384124 0.022658 -0.445704
v -0.256324 0.029217 -0.627038
v -0.800848 0.022658 -0.472308
v -0.597216 0.036057 -0.384912
v -0.756768 0.170657 -1.013564
v -0.521622 0.186225 -1.060464
v -0.292311 0.163021 -0.837837
v -0.522059 0.151573 -0.566384
v -0.777625 0.144263 -0.695974
v -0.590955 0.220717 -0.993332
v -0.726196 0.225156 -0.864950
v -0.434109 0.220765 -0.913360
v -0.483347 0.232034 -0.753741
v -0.578379 0.228243 -0.758876
vn -0.220000 0.890000 -0.399300
vn 0.297900 0.874600 -0.382600
vn 0.378100 0.919900 0.104000
vn -0.162600 0.899400 0.405800
vn -0.583900 0.787000 0.199000
vn -0.013900 0.999900 -0.009700
vn -0.268600 0.898100 0.348200
vn -0.267100 0.897200 0.351800
vn -0.039100 0.999100 -0.014800
vn -0.057500 0.921600 0.383900
vn 0.185600 0.888400 0.419900
vn 0.031500 0.997700 -0.060700
vn 0.356600 0.933200 0.044100
vn 0.458500 0.866300 -0.198500
vn 0.031100 0.997600 -0.061600
vn 0.160300 0.935400 -0.315000
vn -0.033700 0.874400 -0.484100
vn -0.014200 0.998700 -0.049500
vn -0.244200 0.925600 -0.289200
vn -0.521200 0.830300 -0.197300
vn -0.632300 0.746900 0.205900
vn -0.591100 0.732800 0.337100
vn -0.364600 0.833400 0.415300
vn -0.153900 0.861200 0.484500
vn 0.216400 0.780500 0.586500
vn 0.276400 0.797600 0.536100
vn 0.740700 0.617200 0.265300
vn 0.493900 0.769800 0.404300
vn 0.765800 0.580200 -0.277300
vn 0.346800 0.722000 -0.598700
vn 0.338400 0.715300 -0.611500
vn 0.034400 0.780500 -0.624200
vn -0.391000 0.707700 -0.588500
vn -0.708000 0.606700 -0.361500
vn -0.679200 0.676100 -0.285700
vn -0.274400 0.812300 0.514700
vn 0.631400 0.618900 0.467300
vn 0.763000 0.586300 -0.272300
vn -0.275000 0.628200 -0.727800
vn -0.484900 0.818800 0.307300
usemtl Material.001
s off
f 79//121 95//121 100//121
f 80//122 96//122 102//122
f 81//123 97//123 103//123
f 82//124 98//124 104//124
f 83//125 99//125 101//125
f 101//126 104//126 84//126
f 101//127 99//127 104//127
f 99//128 82//128 104//128
f 104//129 103//129 84//129
f 104//130 98//130 103//130
f 98//131 81//131 103//131
f 103//132 102//132 84//132
f 103//133 97//133 102//133
f 97//134 80//134 102//134
f 102//135 100//135 84//135
f 102//136 96//136 100//136
f 96//137 79//137 100//137
f 100//138 101//138 84//138
f 100//139 95//139 101//139
f 95//140 83//140 101//140
f 86//141 99//141 83//141
f 86//142 93//142 99//142
f 93//143 82//143 99//143
f 94//144 98//144 82//144
f 94//145 91//145 98//145
f 91//146 81//146 98//146
f 92//147 97//147 81//147
f 92//148 89//148 97//148
f 89//149 80//149 97//149
f 90//150 96//150 80//150
f 90//151 87//151 96//151
f 87//152 79//152 96//152
f 88//153 95//153 79//153
f 88//154 85//154 95//154
f 85//155 83//155 95//155
f 93//156 94//156 82//156
f 91//157 92//157 81//157
f 89//158 90//158 80//158
f 87//159 88//159 79//159
f 85//160 86//160 83//160
o Icosphere
v 0.109313 0.193164 0.252172
v -0.252852 0.193161 0.134493
v -0.242463 0.191257 -0.247569
v 0.147705 0.142286 -0.374806
v 0.333149 0.193160 -0.055908
v 0.013047 0.288050 -0.062140
v 0.437147 0.035155 -0.124101
v 0.347795 0.030459 -0.258399
v 0.009216 0.053226 0.391580
v 0.285530 0.017651 0.260038
v -0.418715 0.035155 -0.124101
v -0.267099 0.017651 0.260038
v -0.208446 0.023621 -0.455546
v -0.329363 0.030459 -0.258399
v 0.226877 0.023621 -0.455546
v 0.009216 0.037590 -0.532947
v 0.258457 0.221598 0.125175
v -0.042727 0.235833 0.202549
v -0.283884 0.216860 -0.067897
v -0.065754 0.178339 -0.365256
v 0.264424 0.173728 -0.250791
v 0.057879 0.300314 0.105263
v 0.203915 0.263420 -0.063323
v -0.159498 0.268471 0.021115
v -0.093203 0.276319 -0.163950
v 0.057493 0.262884 -0.170860
vn 0.272000 0.820300 0.503100
vn -0.293800 0.889800 0.349100
vn -0.388600 0.895400 -0.217200
vn 0.127500 0.877400 -0.462400
vn 0.473400 0.844300 -0.251100
vn 0.124900 0.976600 -0.175000
vn 0.253500 0.901900 -0.349700
vn 0.214700 0.879400 -0.425000
vn 0.078300 0.977800 -0.194300
vn 0.060600 0.900700 -0.430100
vn -0.237500 0.860300 -0.451100
vn -0.111700 0.993700 0.002100
vn -0.333000 0.939600 -0.079400
vn -0.481200 0.859100 0.174400
vn -0.130600 0.990700 -0.037600
vn -0.261000 0.906800 0.331100
vn 0.039100 0.813800 0.579800
vn 0.126600 0.986300 -0.106200
vn 0.354400 0.929300 0.103600
vn 0.474300 0.878500 0.057700
vn 0.807100 0.487400 -0.333200
vn 0.749100 0.461200 -0.475500
vn 0.434500 0.686500 -0.583000
vn 0.105100 0.784400 -0.611300
vn -0.287400 0.666500 -0.687900
vn -0.362100 0.695900 -0.620100
vn -0.841700 0.472500 -0.261400
vn -0.644600 0.617700 -0.450500
vn -0.815700 0.546800 0.189100
vn -0.355900 0.562600 0.746200
vn -0.405700 0.599100 0.690200
vn -0.027200 0.715200 0.698400
vn 0.491700 0.524800 0.694900
vn 0.865300 0.351300 0.357500
vn 0.852700 0.439200 0.282800
vn 0.288300 0.662700 -0.691200
vn -0.757800 0.441900 -0.480100
vn -0.873400 0.328200 0.359700
vn 0.428600 0.465100 0.774600
vn 0.644200 0.618300 -0.450200
usemtl Material.001
s off
f 105//161 121//161 126//161
f 106//162 122//162 128//162
f 107//163 123//163 129//163
f 108//164 124//164 130//164
f 109//165 125//165 127//165
f 127//166 130//166 110//166
f 127//167 125//167 130//167
f 125//168 108//168 130//168
f 130//169 129//169 110//169
f 130//170 124//170 129//170
f 124//171 107//171 129//171
f 129//172 128//172 110//172
f 129//173 123//173 128//173
f 123//174 106//174 128//174
f 128//175 126//175 110//175
f 128//176 122//176 126//176
f 122//177 105//177 126//177
f 126//178 127//178 110//178
f 126//179 121//179 127//179
f 121//180 109//180 127//180
f 112//181 125//181 109//181
f 112//182 119//182 125//182
f 119//183 108//183 125//183
f 120//184 124//184 108//184
f 120//185 117//185 124//185
f 117//186 107//186 124//186
f 118//187 123//187 107//187
f 118//188 115//188 123//188
f 115//189 106//189 123//189
f 116//190 122//190 106//190
f 116//191 113//191 122//191
f 113//192 105//192 122//192
f 114//193 121//193 105//193
f 114//194 111//194 121//194
f 111//195 109//195 121//195
f 119//196 120//196 108//196
f 117//197 118//197 107//197
f 115//198 116//198 106//198
f 113//199 114//199 105//199
f 111//200 112//200 109//200
